<svg id="Layer_1" data-name="Layer 1" xmlns="http://www.w3.org/2000/svg" viewBox="0 0 63.34 63.27"><defs><style>.cls-1{fill:#fff;}</style></defs><g id="Hudl"><g id="hudl-app-icon-cropped"><path id="DUDES" class="cls-1" d="M50.11,84.86a10.87,10.87,0,0,1-10.58-8.33.24.24,0,0,0-.12-.14,27.9,27.9,0,0,1-4.13-2.06.28.28,0,0,1-.09-.1,28.77,28.77,0,0,1-1.43-15.69.21.21,0,0,1,.14-.16H34a.17.17,0,0,1,.16.06,28.54,28.54,0,0,0,9.46,6.74h.2c.32-.23.62-.42.92-.6a10.86,10.86,0,0,1,14,2.74.21.21,0,0,0,.16.08h0A28.92,28.92,0,0,0,77,57.49a.17.17,0,0,1,.15-.07h.1a.23.23,0,0,1,.1.24A28.67,28.67,0,0,1,60.78,76.35a.19.19,0,0,0-.12.14A10.85,10.85,0,0,1,50.11,84.86ZM29.83,70a.2.2,0,0,1-.15-.06A28.45,28.45,0,0,1,21.82,46.2a.18.18,0,0,0-.06-.17,10.86,10.86,0,0,1,10.5-18.34h.05a.21.21,0,0,0,.13-.05A28.87,28.87,0,0,1,36.3,25.1h.1a28.74,28.74,0,0,1,14.37,6.63.22.22,0,0,1,0,.3l-.09,0a28.49,28.49,0,0,0-10.59,4.83.21.21,0,0,0-.09.18,10.14,10.14,0,0,1,.06,1.1A10.91,10.91,0,0,1,30.71,48.9a.2.2,0,0,0-.16.12,28.64,28.64,0,0,0-1,2.87A29,29,0,0,0,30,69.69a.21.21,0,0,1-.09.24A.27.27,0,0,1,29.83,70ZM65.42,59.84a.18.18,0,0,1-.14-.06.19.19,0,0,1-.06-.2,28.48,28.48,0,0,0,1.13-11.42.19.19,0,0,0-.11-.16,10.86,10.86,0,0,1-5.49-14,.23.23,0,0,0,0-.2,30.37,30.37,0,0,0-2.09-2.45A29,29,0,0,0,43,22.88a.2.2,0,0,1,0-.39,28.2,28.2,0,0,1,24.59,5.2h.19a10.47,10.47,0,0,1,3-.44A10.85,10.85,0,0,1,78.23,46a.2.2,0,0,0-.06.18,28.43,28.43,0,0,1,.26,3.8v.57a.24.24,0,0,1,0,.12A28.68,28.68,0,0,1,65.55,59.8Z" transform="translate(-18.33 -21.59)"/></g></g></svg>