<svg id="layer" xmlns="http://www.w3.org/2000/svg" viewBox="0 0 270.7 92.86"><defs><style>.cls-1{fill:#fff;}</style></defs><path class="cls-1" d="M209.1,349.6H179.9l72.7-45.2h-50l5.7-11.8h80.8l-5.3,10.7Z" transform="translate(-18.4 -292.4)"/><path class="cls-1" d="M179.9,331.4l-3.5,7.2h-20l3.5-7.2H104.6l9.1-18.6,60.8-20.4h24.4l-13.3,27.4h29.3l-17.6,11.8H179.9Zm-7.1-26.7-45.1,15h37.9ZM21.1,339.3,29.3,324c2-3.7,7.5-6.5,16.4-8.4,0,0,35.2-7.3,38.7-8.1,4.3-1.1,5.2-2.7,5.2-2.7l1.7-3.4H62.6l-2.4,4.5H39.7s1.4-2.7,3.6-6.4c4-6.6,13.8-7,13.8-7l60.9.1c-3.6,6.5-6.1,11.3-7.6,14.2-1.9,3.7-8.2,6.6-19.1,9L56.7,323h0s-5.7,1.6-7.4,4.8a20.24,20.24,0,0,1-1.5,2.6H98.3l-4.5,8.8H21.1Z" transform="translate(-18.4 -292.4)"/><path class="cls-1" d="M18.4,385.1l3.66-6.61H32.64l-1.17,2H46.33a10.1,10.1,0,0,0,.94-1.48c.62-1.56-1.71-2.49-1.71-2.49l-13.39-3.66c-4.35-1.24-6-2.72-4.82-4.67.93-1.55,2.25-4,4.12-7.39h37l-3.58,6.46H54.19l1.09-1.87h-15l-1,1.95c-.31,1.09.55,1.09.55,1.09l16,4.36c3.58,1,4.82,2.49,3.73,4.35l-4.43,7.94Z" transform="translate(-18.4 -292.4)"/><path class="cls-1" d="M237,385.1l3.66-6.61h10.58l-1.17,2H264.9a10.1,10.1,0,0,0,.94-1.48c.62-1.56-1.72-2.49-1.72-2.49l-13.38-3.66c-4.36-1.24-6-2.72-4.82-4.67.93-1.55,2.25-4,4.12-7.39h37l-3.58,6.38H272.84l1.09-1.79H259l-1,1.95c-.39,1.09.54,1.09.54,1.09l16,4.36c3.58,1,4.82,2.49,3.74,4.35l-4.44,7.94Z" transform="translate(-18.4 -292.4)"/><path class="cls-1" d="M72.4,360.74l-2.65,4.67H74L63,385.1H74.35l2.56-4.59L80,375.14h11.9a27.84,27.84,0,0,0,8.95-1c2.64-.78,4.59-2.26,5.29-3.66l5.45-9.73Zm22.88,7.63a4.51,4.51,0,0,1-4,2.65H81.89l3-5.61h11.9Z" transform="translate(-18.4 -292.4)"/><path class="cls-1" d="M150.21,362.22c-1.56-.93-4.12-1.4-7.55-1.4H126.79a26.7,26.7,0,0,0-9.1,1.4c-2.49.86-4.21,2.1-5.06,3.58L104.69,380c-.78,1.56-.39,2.73,1.17,3.66s4,1.4,7.47,1.4h15.79a27.41,27.41,0,0,0,9.11-1.4c2.57-.93,4.28-2.18,5.13-3.66l7.94-14.24C152.08,364.32,151.77,363.16,150.21,362.22Zm-11.05,5.45-7.31,12.84H118.77c-3,0-1.63-2.18-1.63-2.18l7.24-12.76h13.38C140.48,365.49,139.16,367.67,139.16,367.67Z" transform="translate(-18.4 -292.4)"/><polygon class="cls-1" points="197.4 92.7 185.97 92.7 188.53 88.11 188.46 88.11 196.78 73.01 190.79 73.01 189.7 74.8 179.12 74.8 182.7 68.34 227.59 68.34 224.01 74.8 213.43 74.8 214.44 73.01 208.22 73.01 199.89 88.11 199.97 88.11 197.4 92.7"/><path class="cls-1" d="M191.6,370.63l5.45-9.73H157.84l-2.65,4.67h4.2l-11,19.69H160l2.57-4.6,3-5.29h9.8l5.29,9.81h11.91l-6.23-10.9C189.12,373.35,190.9,371.87,191.6,370.63ZM181,368.37a4.65,4.65,0,0,1-4,2.65h-9.34l2.88-5.61h12Z" transform="translate(-18.4 -292.4)"/></svg>