<?xml version="1.0" encoding="UTF-8"?><svg id="Layer_1" xmlns="http://www.w3.org/2000/svg" viewBox="0 0 244.99 241.31"><defs><style>.cls-1{fill:#fff;}</style></defs><path class="cls-1" d="m114.84,65.31l-6.85,6.73v45.7l7.44,7.06h12.49v41.66h-9.95v-28.02h-9.97v30.62l6.87,6.75,16.69.1,6.78-6.86v-48.86l-7.5-7.01h-12.61s-.03-37.5-.03-37.5l9.74.04v24.05h10.27l.03-27.78-6.72-6.7h-16.66,0Zm25.57,14.67l.02,9.54c2.72.27,6.88.73,6.88.73v64.47c3.39.49,6.62.92,9.7,1.47v-64.75s3.79.53,7.24,1.12v-9.63c-8.22-1.45-15.56-2.23-23.83-2.96h0Zm-46.22,1.2c-4.32.58-8.66,1.1-13.02,1.91l-5.41,7.12v63.33l4.98,4.41c5.55-1.34,9.7-2.01,15.06-2.83l4.7-5.9v-61.84l-6.3-6.19h0Zm78.32,3.27l-6.04,5.52v68.21c3.05.79,6.06,1.41,9.01,2.36v-34l5.9,1.68v34.34c3.05,1.12,6.03,2.1,8.94,3.39v-69.37l-5.17-9.3c-4.39-1.18-8.25-1.89-12.64-2.83h0Zm-101.67.6c-3.03.7-6.25,1.28-9.28,2.09v76.41c3.06-1.03,5.88-1.99,9.28-3.01v-75.49h0Zm-14.07,3.43c-3.15.91-6.28,1.6-9.42,2.76v31.07l-6.24,2.35v-31.53c-3.17,1.14-6.11,1.99-9.24,3.26v81.97c3.32-2.3,5.24-3.53,9.24-5.95v-37.45s3.53-1.53,6.24-2.46v36.68c3.05-1.48,6.21-2.46,9.41-3.81v-76.88s0,0,0,0Zm136.6.99v9.95c.7.2,7.42,2.27,7.42,2.27l.02,68.74c3.29,1.65,6.17,3.19,9.12,5.11v-70.65s8.14,3.14,8.73,3.41v-10.26c-8.11-3.45-16.94-6.01-25.29-8.56h0Zm-102.13,2.18v54.57l-6.36,1.19v-54.91l6.36-.85h0Zm84.25,3.22l5.9,1.39v21.88l-5.9-1.41v-21.86h0Zm46.49,4.39v104.16c6.79,5.16,16.75,13.06,22.99,18.34v-12.49c-4.26-3.45-13.02-10.5-13.02-10.5v-38.01s9,4.89,13.02,7.33v-11.85c-3.92-2.45-13.41-7.49-13.41-7.49l.02-34.57s8.83,4.38,13.4,6.97v-10.97c-7.34-4.34-15.21-7.43-22.99-10.92h0Zm-202.97,2.11c-4.88,2.28-9.56,4.42-14.24,7.04l-4.77,9.1v97.24l7.55,5.06c1.26-.79,13.11-7.97,13.87-8.38l4.52-9.5v-95.49l-6.93-5.06h0Zm-2.37,11.6v90.23s-6.94,4.72-6.94,4.72v-91.31l6.94-3.64h0Z"/><path class="cls-1" d="m93.73,13.81l-37.29,36.72v31.85c10.61-2.97,20.81-4.79,31.31-6.37v-12.57l18.9-18.44h33.3l18.54,18.56v12.37c10.49,1.55,20.63,3.48,31.25,6.41v-31.64l-36.89-36.89h-59.12,0Zm64.81,148.16l-.03,15.48-18.38,18.81h-33.63l-18.77-18.76v-15.42c-11.08,2.19-21.93,5.34-31.22,9.34v19.18l37.08,36.99h59.41l36.77-37.16v-19.04c-9.77-4.14-19.73-7.15-31.22-9.41h0Z"/><path class="cls-1" d="m87.99,0l-45.26,44.44.07,34.88c-14.13,4.52-28.96,9.92-42.65,17.3v7.35c15.06-8.69,37.55-16.2,49.76-19.78v-36.46L91.09,7.21h64.53l40.7,40.23-.05,36.61c14.08,3.96,35.15,11.95,48.72,19.52v-7.35c-13.65-7.32-27.16-12.23-41.58-16.84l-.05-34.8L158.68,0h-70.69,0Zm21.41,51.53l-15.1,14.79v8.77c2.57-.33,4.56-.42,7.11-.67v-5.2l10.83-10.56h21.97l10.57,10.51v5.13c2.54.24,4.7.56,7.27.88v-8.85l-14.84-14.8h-27.81Zm35.57,108.43v11.79l-10.56,10.61h-22.27l-10.73-10.42v-11.93c-2.58.33-4.59.39-7.12.84v14l14.91,14.81h27.94l14.9-14.98v-13.67c-2.53-.43-4.48-.73-7.07-1.05h0Zm-95.05,14.23c-7.47,3.63-12.7,6.84-18.06,10.77v8.46c3.22-2.57,7.22-5.94,10.85-8.06v10.75l45.39,45.19h70.3l44.96-44.99v-10.54c5.08,3.05,9.58,6.12,13.76,9.67v-8.31c-6.12-4.68-12.99-9.24-20.79-12.94l-.04,18.96-40.63,41.02h-64.76l-40.97-40.79v-19.19h0Z"/></svg>