<svg xmlns="http://www.w3.org/2000/svg" viewBox="0 0 249.07 209.04"><defs><style>.cls-1{fill:#fff;}</style></defs><g id="Layer_2" data-name="Layer 2"><g id="Layer_1-2" data-name="Layer 1"><path class="cls-1" d="M134.54,7c-2.9,13.89-5.74,27.52-8.86,42.47C159,12,198.82-5.74,249.07,1.64c-1.72,8.24-3.34,16-4.95,23.73q-4.35,21-8.7,42.06c-1.47,7.12-1.47,7.06-8.58,6.29a118.86,118.86,0,0,0-60.65,8.81C130.3,98,108.62,125,101.66,163.68c-2.5,13.92-5.84,27.69-8.66,41.56-.5,2.45-1.13,3.81-4,3.8-28.84-.1-57.68-.07-86.52-.1A13.71,13.71,0,0,1,0,208.38c1.9-9.22,3.75-18.31,5.66-27.4Q23.47,96.17,41.26,11.35c.57-2.71.82-4.92,4.75-4.89,28.5.19,57,.11,85.51.14A28.23,28.23,0,0,1,134.54,7Z"/></g></g></svg>